<?xml version="1.0" encoding="UTF-8"?>
<!-- Generator: Adobe Illustrator 19.1.0, SVG Export Plug-In . SVG Version: 6.00 Build 0)  -->
<svg version="1.1" xmlns="http://www.w3.org/2000/svg" xmlns:xlink="http://www.w3.org/1999/xlink" x="0px" y="0px" viewBox="0 0 92.9 35" style="enable-background:new 0 0 92.9 35;" xml:space="preserve">
<style type="text/css">
	.st0{fill:#9D9D9C;}
	.st1{fill:#F7B08B;}
	.st2{opacity:0.54;fill:#D60B52;}
	.st3{fill:#FFFFFF;}
	.st4{fill:#565656;}
	.st5{fill:#80C6DC;}
	.st6{fill:#DADADA;}
	.st7{opacity:0.1;}
	.st8{fill:#010202;}
	.st9{fill:#C6C6C6;}
	.st10{fill:#010203;}
	.st11{fill:#B2B2B2;}
	.st12{fill:#A7A9AC;}
	.st13{fill:#71C4D8;}
	.st14{fill:#58595B;}
	.st15{fill:#555859;}
	.st16{opacity:0.69;}
	.st17{fill:#EE342E;}
	.st18{opacity:0.69;fill:#EE342E;}
	.st19{fill:#FBB274;stroke:#FFFFFF;stroke-width:0.3321;stroke-miterlimit:10;}
	.st20{fill:#FBB274;}
	.st21{fill:#4FB9D9;stroke:#FFFFFF;stroke-width:2;stroke-miterlimit:10;}
	.st22{fill:none;stroke:#FBB274;stroke-width:2;stroke-miterlimit:10;}
	.st23{fill:#FFFFFF;stroke:#FBB274;stroke-width:1.0866;stroke-miterlimit:10;}
	.st24{fill:#FFFFFF;stroke:#FBB274;stroke-width:2;stroke-miterlimit:10;}
	.st25{fill:#FFFFFF;stroke:#FBB274;stroke-width:2.1732;stroke-miterlimit:10;}
	.st26{fill:#4FB9D9;}
	.st27{fill:#6FBFD4;}
	.st28{fill:#F9AA87;stroke:#F9AA87;stroke-width:2;stroke-miterlimit:10;}
	.st29{fill:#FFFFFF;stroke:#F9AA87;stroke-width:2;stroke-miterlimit:10;}
	.st30{fill:#F9AA87;}
	.st31{clip-path:url(#SVGID_14_);}
	.st32{opacity:8.000000e-02;fill:#A97C50;}
	.st33{fill:#FFFFFF;stroke:#FFFFFF;stroke-width:0.5;stroke-miterlimit:10;}
	.st34{fill:#72C4D7;}
	.st35{fill:#F7AA87;}
	.st36{fill:#E9E9EA;}
	.st37{clip-path:url(#SVGID_20_);}
	.st38{fill:#4F5252;}
	.st39{fill:#72C3D7;}
	.st40{fill:#727F88;}
	.st41{fill:#565A5B;}
	.st42{fill:#70BFD3;}
	.st43{clip-path:url(#SVGID_24_);}
	.st44{clip-path:url(#SVGID_28_);}
	.st45{clip-path:url(#SVGID_32_);}
	.st46{fill:#353838;}
	.st47{clip-path:url(#SVGID_36_);}
	.st48{fill:#F16F56;}
	.st49{opacity:0.65;fill:#ED4237;}
	.st50{fill:#E1E3E6;}
	.st51{fill:#8EC979;}
	.st52{fill:#73BD59;}
	.st53{fill:#81C56C;}
	.st54{fill:#CCB133;}
	.st55{fill:#F4DA61;}
	.st56{fill:#F8E68D;}
	.st57{fill:#D9C76C;}
	.st58{fill:#A2D290;}
	.st59{fill:#97CE8A;}
	.st60{fill:none;stroke:#F16F56;stroke-width:2.8068;stroke-linecap:round;stroke-miterlimit:10;}
	.st61{opacity:0.51;fill:#B7D337;}
	.st62{opacity:0.51;fill:#71BE45;}
	.st63{fill:#D8D9D8;}
	.st64{fill:#FFCD64;}
	.st65{fill:#FCB355;}
	.st66{clip-path:url(#SVGID_42_);}
	.st67{fill:none;stroke:#FFFFFF;stroke-width:0.4977;stroke-miterlimit:10;}
	.st68{fill:#D0D2D1;}
	.st69{fill:#D9DAD9;stroke:#D0D2D1;stroke-width:0.4977;stroke-miterlimit:10;}
	.st70{fill:#505153;}
	.st71{fill:#BBBDBC;}
	.st72{fill:#9CAAB4;}
	.st73{fill:none;stroke:#FFFFFF;stroke-width:9.270300e-02;stroke-miterlimit:10;}
	.st74{opacity:0.5;fill:#FEFFFF;stroke:#9CAAB4;stroke-width:0.4678;stroke-miterlimit:10;}
	.st75{fill:none;stroke:#FFFFFF;stroke-width:2;stroke-miterlimit:10;}
	.st76{fill:#73C4D7;}
	.st77{fill:none;stroke:#FFFFFF;stroke-miterlimit:10;}
	.st78{fill:#378093;}
	.st79{fill:#F68F6B;}
	.st80{fill:none;stroke:#A7A9AC;stroke-width:0.9685;stroke-linecap:round;stroke-linejoin:round;stroke-miterlimit:10;}
	.st81{opacity:0.16;fill:#A97C50;}
	.st82{fill:#939598;}
	.st83{fill:none;stroke:#FFFFFF;stroke-width:1.5036;stroke-miterlimit:10;}
	.st84{fill:#FFFFFF;stroke:#9CAAB4;stroke-width:0.4678;stroke-miterlimit:10;}
</style>
<g id="grid">
</g>
<g id="_x32_4_Grid_Col_1_">
	<g>
		<defs>
			<rect id="SVGID_41_" x="-406.1" y="-665.4" width="1200" height="356.3"/>
		</defs>
		<clipPath id="SVGID_2_">
			<use xlink:href="#SVGID_41_" style="overflow:visible;"/>
		</clipPath>
		<g style="clip-path:url(#SVGID_2_);">
			<defs>
				<rect id="SVGID_43_" x="-482.4" y="-799.2" width="1390.4" height="927"/>
			</defs>
			<clipPath id="SVGID_4_">
				<use xlink:href="#SVGID_43_" style="overflow:visible;"/>
			</clipPath>
			<g style="clip-path:url(#SVGID_4_);">
				
					<image style="overflow:visible;" width="2058" height="1372" xlink:href="F5E09F8652071217.jpg" transform="matrix(0.6756 0 0 0.6756 -482.4019 -799.158)">
				</image>
			</g>
		</g>
	</g>
	<g>
		<path class="st72" d="M91.8,30c0,1.7-1.2,3.1-2.6,3.1H3.9c-1.4,0-2.6-1.4-2.6-3.1V5c0-1.7,1.2-3.1,2.6-3.1h85.3    c1.4,0,2.6,1.4,2.6,3.1L91.8,30z"/>
		<path class="st3" d="M21.2,17.3c0-2.2,1.8-3.3,1.9-3.3c-1-1.5-2.6-1.7-3.2-1.7c-1.3-0.1-2.6,0.8-3.3,0.8c-0.7,0-1.7-0.8-2.9-0.8    c-1.5,0-2.8,0.9-3.6,2.2c-1.5,2.7-0.4,6.6,1.1,8.7c0.7,1.1,1.6,2.2,2.7,2.2c1.1,0,1.5-0.7,2.9-0.7c1.3,0,1.7,0.7,2.9,0.7    c1.2,0,1.9-1.1,2.6-2.1c0.9-1.2,1.2-2.4,1.2-2.5C23.5,20.8,21.2,19.9,21.2,17.3"/>
		<path class="st3" d="M19,10.8c0.6-0.7,1-1.8,0.9-2.8c-0.9,0-1.9,0.6-2.6,1.3c-0.5,0.6-1,1.7-0.9,2.7C17.4,12.1,18.4,11.5,19,10.8"/>
		<path class="st3" d="M37.2,25.2h-1.5l-0.8-2.7h-2.9L31,25.2h-1.5l2.9-9h1.8L37.2,25.2z M34.5,21.5l-0.8-2.4    c-0.1-0.2-0.2-0.8-0.5-1.7h0c-0.1,0.4-0.2,1-0.4,1.7l-0.8,2.4H34.5z"/>
		<path class="st3" d="M44.7,21.9c0,1.1-0.3,2-0.9,2.6c-0.5,0.6-1.2,0.9-2,0.9c-0.9,0-1.5-0.3-1.9-0.9h0v3.4h-1.4v-7    c0-0.7,0-1.4-0.1-2.1h1.3l0.1,1h0c0.5-0.8,1.2-1.2,2.2-1.2c0.8,0,1.4,0.3,1.9,0.9C44.4,20.1,44.7,20.9,44.7,21.9 M43.2,21.9    c0-0.6-0.1-1.2-0.4-1.6c-0.3-0.4-0.7-0.6-1.3-0.6c-0.4,0-0.7,0.1-1,0.4c-0.3,0.2-0.5,0.5-0.6,0.9c0,0.2-0.1,0.3-0.1,0.4v1.1    c0,0.5,0.1,0.9,0.4,1.2c0.3,0.3,0.7,0.5,1.1,0.5c0.5,0,1-0.2,1.3-0.6C43,23.2,43.2,22.6,43.2,21.9"/>
		<path class="st3" d="M52.2,21.9c0,1.1-0.3,2-0.9,2.6c-0.5,0.6-1.2,0.9-2,0.9c-0.9,0-1.5-0.3-1.9-0.9h0v3.4h-1.4v-7    c0-0.7,0-1.4-0.1-2.1h1.3l0.1,1h0c0.5-0.8,1.2-1.2,2.2-1.2c0.8,0,1.4,0.3,1.9,0.9C51.9,20.1,52.2,20.9,52.2,21.9 M50.7,21.9    c0-0.6-0.1-1.2-0.4-1.6c-0.3-0.4-0.7-0.6-1.3-0.6c-0.4,0-0.7,0.1-1,0.4c-0.3,0.2-0.5,0.5-0.6,0.9c0,0.2-0.1,0.3-0.1,0.4v1.1    c0,0.5,0.1,0.9,0.4,1.2c0.3,0.3,0.7,0.5,1.1,0.5c0.5,0,1-0.2,1.3-0.6C50.5,23.2,50.7,22.6,50.7,21.9"/>
		<path class="st3" d="M60.5,22.7c0,0.8-0.3,1.4-0.8,1.9c-0.6,0.5-1.4,0.8-2.5,0.8c-1,0-1.8-0.2-2.3-0.6l0.3-1.2    c0.6,0.4,1.3,0.6,2.1,0.6c0.5,0,1-0.1,1.3-0.4c0.3-0.2,0.5-0.6,0.5-1c0-0.4-0.1-0.7-0.4-0.9c-0.2-0.3-0.7-0.5-1.2-0.7    c-1.6-0.6-2.4-1.5-2.4-2.6c0-0.7,0.3-1.4,0.8-1.8c0.6-0.5,1.3-0.7,2.2-0.7c0.8,0,1.5,0.1,2.1,0.4l-0.4,1.2    c-0.5-0.3-1.1-0.4-1.7-0.4c-0.5,0-0.9,0.1-1.2,0.4c-0.2,0.2-0.4,0.5-0.4,0.8c0,0.4,0.1,0.7,0.4,0.9c0.2,0.2,0.7,0.4,1.3,0.7    c0.8,0.3,1.4,0.7,1.7,1.1C60.4,21.5,60.5,22.1,60.5,22.7"/>
		<path class="st3" d="M65.3,19.8h-1.6V23c0,0.8,0.3,1.2,0.8,1.2c0.3,0,0.5,0,0.6-0.1l0,1.1c-0.3,0.1-0.7,0.2-1.1,0.2    c-0.6,0-1-0.2-1.3-0.5c-0.3-0.3-0.5-0.9-0.5-1.8v-3.3h-1v-1.1h1v-1.2l1.4-0.4v1.6h1.6V19.8"/>
		<path class="st3" d="M72.5,21.9c0,1-0.3,1.8-0.9,2.5c-0.6,0.7-1.4,1-2.4,1c-1,0-1.7-0.3-2.3-1c-0.6-0.6-0.9-1.4-0.9-2.4    c0-1,0.3-1.8,0.9-2.5c0.6-0.6,1.4-1,2.4-1c1,0,1.7,0.3,2.3,1C72.3,20.1,72.5,20.9,72.5,21.9 M71,22c0-0.6-0.1-1.1-0.4-1.5    c-0.3-0.5-0.7-0.8-1.3-0.8c-0.6,0-1,0.3-1.3,0.8c-0.3,0.4-0.4,1-0.4,1.6c0,0.6,0.1,1.1,0.4,1.5c0.3,0.5,0.8,0.8,1.3,0.8    c0.6,0,1-0.3,1.3-0.8C70.9,23.1,71,22.6,71,22"/>
		<path class="st3" d="M77.3,20c-0.1,0-0.3,0-0.5,0c-0.5,0-0.9,0.2-1.2,0.6c-0.2,0.3-0.4,0.8-0.4,1.3v3.4h-1.4l0-4.5    c0-0.8,0-1.4-0.1-2.1H75l0.1,1.2h0c0.2-0.4,0.4-0.8,0.7-1c0.3-0.2,0.7-0.3,1-0.3c0.1,0,0.3,0,0.4,0V20"/>
		<path class="st3" d="M83.7,21.7c0,0.3,0,0.5-0.1,0.7h-4.3c0,0.6,0.2,1.1,0.6,1.5c0.4,0.3,0.8,0.5,1.4,0.5c0.6,0,1.2-0.1,1.8-0.3    l0.2,1c-0.6,0.3-1.3,0.4-2.2,0.4c-1,0-1.8-0.3-2.4-0.9c-0.6-0.6-0.9-1.4-0.9-2.4c0-1,0.3-1.8,0.8-2.5c0.6-0.7,1.3-1,2.3-1    c0.9,0,1.7,0.3,2.1,1C83.5,20.2,83.7,20.8,83.7,21.7 M82.4,21.3c0-0.4-0.1-0.8-0.3-1.1c-0.3-0.4-0.6-0.6-1.2-0.6    c-0.5,0-0.9,0.2-1.2,0.6c-0.2,0.3-0.4,0.7-0.4,1.1L82.4,21.3L82.4,21.3z"/>
		<path class="st3" d="M34,10.6c0,0.8-0.2,1.4-0.7,1.8c-0.4,0.4-1.1,0.6-1.9,0.6c-0.4,0-0.8,0-1-0.1V8.6c0.4-0.1,0.8-0.1,1.2-0.1    c0.8,0,1.4,0.2,1.8,0.5C33.8,9.4,34,9.9,34,10.6 M33.3,10.6c0-0.5-0.1-0.9-0.4-1.2C32.6,9.2,32.2,9,31.7,9c-0.2,0-0.4,0-0.6,0v3.3    c0.1,0,0.2,0,0.5,0c0.5,0,1-0.2,1.3-0.5C33.1,11.7,33.3,11.2,33.3,10.6"/>
		<path class="st3" d="M38,11.3c0,0.5-0.1,0.9-0.4,1.2c-0.3,0.3-0.7,0.5-1.2,0.5c-0.5,0-0.8-0.2-1.1-0.5c-0.3-0.3-0.4-0.7-0.4-1.2    c0-0.5,0.1-0.9,0.4-1.2c0.3-0.3,0.7-0.5,1.2-0.5c0.5,0,0.8,0.2,1.1,0.5C37.9,10.4,38,10.8,38,11.3 M37.3,11.3    c0-0.3-0.1-0.5-0.2-0.8c-0.2-0.3-0.4-0.4-0.6-0.4c-0.3,0-0.5,0.1-0.7,0.4c-0.1,0.2-0.2,0.5-0.2,0.8c0,0.3,0.1,0.5,0.2,0.8    c0.2,0.3,0.4,0.4,0.6,0.4c0.3,0,0.5-0.1,0.6-0.4C37.2,11.9,37.3,11.6,37.3,11.3"/>
		<path class="st3" d="M43.4,9.7l-1,3.2h-0.7l-0.4-1.4c-0.1-0.3-0.2-0.7-0.3-1h0c-0.1,0.4-0.1,0.7-0.3,1l-0.4,1.4h-0.7l-0.9-3.2h0.7    l0.4,1.5c0.1,0.4,0.2,0.7,0.2,1h0c0.1-0.3,0.1-0.6,0.3-1l0.5-1.5h0.6l0.4,1.5c0.1,0.4,0.2,0.7,0.3,1.1h0c0-0.3,0.1-0.7,0.2-1.1    l0.4-1.5L43.4,9.7L43.4,9.7z"/>
		<path class="st3" d="M47.1,12.9h-0.7v-1.8c0-0.6-0.2-0.8-0.6-0.8c-0.2,0-0.4,0.1-0.5,0.2C45.1,10.6,45,10.8,45,11v1.9h-0.7v-2.3    c0-0.3,0-0.6,0-0.9h0.6l0,0.5h0c0.1-0.2,0.2-0.3,0.4-0.4c0.2-0.1,0.4-0.2,0.6-0.2c0.3,0,0.5,0.1,0.7,0.3c0.2,0.2,0.4,0.6,0.4,1.1    V12.9z"/>
		<rect x="48.3" y="8.3" class="st3" width="0.7" height="4.7"/>
		<path class="st3" d="M53.2,11.3c0,0.5-0.1,0.9-0.4,1.2c-0.3,0.3-0.7,0.5-1.2,0.5c-0.5,0-0.8-0.2-1.1-0.5c-0.3-0.3-0.4-0.7-0.4-1.2    c0-0.5,0.1-0.9,0.4-1.2c0.3-0.3,0.7-0.5,1.2-0.5c0.5,0,0.8,0.2,1.1,0.5C53.1,10.4,53.2,10.8,53.2,11.3 M52.5,11.3    c0-0.3-0.1-0.5-0.2-0.8c-0.1-0.3-0.4-0.4-0.6-0.4c-0.3,0-0.5,0.1-0.7,0.4c-0.1,0.2-0.2,0.5-0.2,0.8c0,0.3,0.1,0.5,0.2,0.8    c0.2,0.3,0.4,0.4,0.6,0.4c0.3,0,0.5-0.1,0.6-0.4C52.4,11.9,52.5,11.6,52.5,11.3"/>
		<path class="st3" d="M56.7,12.9H56L56,12.6h0C55.7,12.9,55.4,13,55,13c-0.3,0-0.5-0.1-0.7-0.3c-0.2-0.2-0.3-0.4-0.3-0.7    c0-0.4,0.2-0.7,0.5-0.9c0.3-0.2,0.8-0.3,1.4-0.3v-0.1c0-0.4-0.2-0.6-0.7-0.6c-0.3,0-0.6,0.1-0.8,0.2L54.3,10    c0.3-0.2,0.7-0.3,1.1-0.3c0.8,0,1.3,0.4,1.3,1.3v1.2C56.6,12.5,56.6,12.8,56.7,12.9 M55.9,11.8v-0.5c-0.8,0-1.2,0.2-1.2,0.6    c0,0.2,0,0.3,0.1,0.4c0.1,0.1,0.2,0.1,0.3,0.1c0.2,0,0.3-0.1,0.4-0.1c0.1-0.1,0.2-0.2,0.2-0.4C55.9,11.9,55.9,11.9,55.9,11.8"/>
		<path class="st3" d="M60.7,12.9h-0.6l0-0.5h0c-0.2,0.4-0.5,0.6-1,0.6c-0.4,0-0.7-0.2-1-0.5c-0.3-0.3-0.4-0.7-0.4-1.2    c0-0.5,0.1-0.9,0.4-1.3c0.3-0.3,0.6-0.4,1-0.4c0.4,0,0.7,0.1,0.9,0.4h0V8.3h0.7v3.8C60.7,12.4,60.7,12.7,60.7,12.9 M60,11.6v-0.5    c0-0.1,0-0.2,0-0.2c0-0.2-0.1-0.3-0.3-0.4c-0.1-0.1-0.3-0.2-0.5-0.2c-0.3,0-0.5,0.1-0.6,0.3c-0.2,0.2-0.2,0.5-0.2,0.8    c0,0.3,0.1,0.6,0.2,0.8c0.2,0.2,0.4,0.3,0.6,0.3c0.2,0,0.4-0.1,0.6-0.3C59.9,12,60,11.8,60,11.6"/>
		<path class="st3" d="M66.8,11.3c0,0.5-0.1,0.9-0.4,1.2c-0.3,0.3-0.7,0.5-1.2,0.5c-0.5,0-0.8-0.2-1.1-0.5c-0.3-0.3-0.4-0.7-0.4-1.2    c0-0.5,0.1-0.9,0.4-1.2c0.3-0.3,0.7-0.5,1.2-0.5c0.5,0,0.8,0.2,1.1,0.5C66.7,10.4,66.8,10.8,66.8,11.3 M66.1,11.3    c0-0.3-0.1-0.5-0.2-0.8c-0.2-0.3-0.4-0.4-0.6-0.4c-0.3,0-0.5,0.1-0.7,0.4c-0.1,0.2-0.2,0.5-0.2,0.8c0,0.3,0.1,0.5,0.2,0.8    c0.2,0.3,0.4,0.4,0.6,0.4c0.3,0,0.5-0.1,0.6-0.4C66,11.9,66.1,11.6,66.1,11.3"/>
		<path class="st3" d="M70.6,12.9h-0.7v-1.8c0-0.6-0.2-0.8-0.6-0.8c-0.2,0-0.4,0.1-0.5,0.2c-0.1,0.2-0.2,0.3-0.2,0.5v1.9h-0.7v-2.3    c0-0.3,0-0.6,0-0.9h0.6l0,0.5h0c0.1-0.2,0.2-0.3,0.4-0.4c0.2-0.1,0.4-0.2,0.6-0.2c0.3,0,0.5,0.1,0.7,0.3c0.2,0.2,0.4,0.6,0.4,1.1    V12.9z"/>
		<path class="st3" d="M75.4,10.3h-0.8v1.6c0,0.4,0.1,0.6,0.4,0.6c0.1,0,0.2,0,0.3,0l0,0.5C75.3,13,75.1,13,74.8,13    c-0.3,0-0.5-0.1-0.7-0.3c-0.2-0.2-0.2-0.5-0.2-0.9v-1.6h-0.5V9.7h0.5V9.2l0.7-0.2v0.8h0.8L75.4,10.3L75.4,10.3z"/>
		<path class="st3" d="M79.2,12.9h-0.7v-1.8c0-0.6-0.2-0.9-0.6-0.9c-0.3,0-0.6,0.2-0.7,0.5c0,0.1,0,0.2,0,0.3v1.9h-0.7V8.3h0.7v1.9    h0c0.2-0.4,0.5-0.5,1-0.5c0.3,0,0.5,0.1,0.7,0.3c0.2,0.2,0.4,0.6,0.4,1.1V12.9"/>
		<path class="st3" d="M83.1,11.2c0,0.1,0,0.2,0,0.3h-2.1c0,0.3,0.1,0.6,0.3,0.7c0.2,0.1,0.4,0.2,0.7,0.2c0.3,0,0.6-0.1,0.9-0.2    l0.1,0.5c-0.3,0.1-0.7,0.2-1.1,0.2c-0.5,0-0.9-0.1-1.2-0.4c-0.3-0.3-0.4-0.7-0.4-1.2c0-0.5,0.1-0.9,0.4-1.2    c0.3-0.3,0.6-0.5,1.1-0.5c0.5,0,0.8,0.2,1,0.5C83,10.5,83.1,10.8,83.1,11.2 M82.4,11c0-0.2,0-0.4-0.1-0.5    c-0.1-0.2-0.3-0.3-0.6-0.3c-0.2,0-0.4,0.1-0.6,0.3c-0.1,0.2-0.2,0.3-0.2,0.6H82.4z"/>
	</g>
</g>
<head xmlns=""/></svg>