<?xml version="1.0" encoding="UTF-8"?>
<!-- Generator: Adobe Illustrator 19.1.0, SVG Export Plug-In . SVG Version: 6.00 Build 0)  -->
<svg version="1.1" xmlns="http://www.w3.org/2000/svg" xmlns:xlink="http://www.w3.org/1999/xlink" x="0px" y="0px" viewBox="0 0 92.9 35" style="enable-background:new 0 0 92.9 35;" xml:space="preserve">
<style type="text/css">
	.st0{fill:#9D9D9C;}
	.st1{fill:#F7B08B;}
	.st2{opacity:0.54;fill:#D60B52;}
	.st3{fill:#FFFFFF;}
	.st4{fill:#565656;}
	.st5{fill:#80C6DC;}
	.st6{fill:#DADADA;}
	.st7{opacity:0.1;}
	.st8{fill:#010202;}
	.st9{fill:#C6C6C6;}
	.st10{fill:#010203;}
	.st11{fill:#B2B2B2;}
	.st12{fill:#A7A9AC;}
	.st13{fill:#71C4D8;}
	.st14{fill:#58595B;}
	.st15{fill:#555859;}
	.st16{opacity:0.69;}
	.st17{fill:#EE342E;}
	.st18{opacity:0.69;fill:#EE342E;}
	.st19{fill:#FBB274;stroke:#FFFFFF;stroke-width:0.3321;stroke-miterlimit:10;}
	.st20{fill:#FBB274;}
	.st21{fill:#4FB9D9;stroke:#FFFFFF;stroke-width:2;stroke-miterlimit:10;}
	.st22{fill:none;stroke:#FBB274;stroke-width:2;stroke-miterlimit:10;}
	.st23{fill:#FFFFFF;stroke:#FBB274;stroke-width:1.0866;stroke-miterlimit:10;}
	.st24{fill:#FFFFFF;stroke:#FBB274;stroke-width:2;stroke-miterlimit:10;}
	.st25{fill:#FFFFFF;stroke:#FBB274;stroke-width:2.1732;stroke-miterlimit:10;}
	.st26{fill:#4FB9D9;}
	.st27{fill:#6FBFD4;}
	.st28{fill:#F9AA87;stroke:#F9AA87;stroke-width:2;stroke-miterlimit:10;}
	.st29{fill:#FFFFFF;stroke:#F9AA87;stroke-width:2;stroke-miterlimit:10;}
	.st30{fill:#F9AA87;}
	.st31{clip-path:url(#SVGID_14_);}
	.st32{opacity:8.000000e-02;fill:#A97C50;}
	.st33{fill:#FFFFFF;stroke:#FFFFFF;stroke-width:0.5;stroke-miterlimit:10;}
	.st34{fill:#72C4D7;}
	.st35{fill:#F7AA87;}
	.st36{fill:#E9E9EA;}
	.st37{clip-path:url(#SVGID_20_);}
	.st38{fill:#4F5252;}
	.st39{fill:#72C3D7;}
	.st40{fill:#727F88;}
	.st41{fill:#565A5B;}
	.st42{fill:#70BFD3;}
	.st43{clip-path:url(#SVGID_24_);}
	.st44{clip-path:url(#SVGID_28_);}
	.st45{clip-path:url(#SVGID_32_);}
	.st46{fill:#353838;}
	.st47{clip-path:url(#SVGID_36_);}
	.st48{fill:#F16F56;}
	.st49{opacity:0.65;fill:#ED4237;}
	.st50{fill:#E1E3E6;}
	.st51{fill:#8EC979;}
	.st52{fill:#73BD59;}
	.st53{fill:#81C56C;}
	.st54{fill:#CCB133;}
	.st55{fill:#F4DA61;}
	.st56{fill:#F8E68D;}
	.st57{fill:#D9C76C;}
	.st58{fill:#A2D290;}
	.st59{fill:#97CE8A;}
	.st60{fill:none;stroke:#F16F56;stroke-width:2.8068;stroke-linecap:round;stroke-miterlimit:10;}
	.st61{opacity:0.51;fill:#B7D337;}
	.st62{opacity:0.51;fill:#71BE45;}
	.st63{fill:#D8D9D8;}
	.st64{fill:#FFCD64;}
	.st65{fill:#FCB355;}
	.st66{clip-path:url(#SVGID_42_);}
	.st67{fill:none;stroke:#FFFFFF;stroke-width:0.4977;stroke-miterlimit:10;}
	.st68{fill:#D0D2D1;}
	.st69{fill:#D9DAD9;stroke:#D0D2D1;stroke-width:0.4977;stroke-miterlimit:10;}
	.st70{fill:#505153;}
	.st71{fill:#BBBDBC;}
	.st72{fill:#9CAAB4;}
	.st73{fill:none;stroke:#FFFFFF;stroke-width:9.270300e-02;stroke-miterlimit:10;}
	.st74{opacity:0.5;fill:#FEFFFF;stroke:#9CAAB4;stroke-width:0.4678;stroke-miterlimit:10;}
	.st75{fill:none;stroke:#FFFFFF;stroke-width:2;stroke-miterlimit:10;}
	.st76{fill:#73C4D7;}
	.st77{fill:none;stroke:#FFFFFF;stroke-miterlimit:10;}
	.st78{fill:#378093;}
	.st79{fill:#F68F6B;}
	.st80{fill:none;stroke:#A7A9AC;stroke-width:0.9685;stroke-linecap:round;stroke-linejoin:round;stroke-miterlimit:10;}
	.st81{opacity:0.16;fill:#A97C50;}
	.st82{fill:#939598;}
	.st83{fill:none;stroke:#FFFFFF;stroke-width:1.5036;stroke-miterlimit:10;}
	.st84{fill:#FFFFFF;stroke:#9CAAB4;stroke-width:0.4678;stroke-miterlimit:10;}
</style>
<g id="grid">
</g>
<g id="_x32_4_Grid_Col_1_">
	<g>
		<defs>
			<rect id="SVGID_41_" x="-504.6" y="-665.4" width="1200" height="356.3"/>
		</defs>
		<clipPath id="SVGID_2_">
			<use xlink:href="#SVGID_41_" style="overflow:visible;"/>
		</clipPath>
		<g style="clip-path:url(#SVGID_2_);">
			<defs>
				<rect id="SVGID_43_" x="-580.9" y="-799.2" width="1390.4" height="927"/>
			</defs>
			<clipPath id="SVGID_4_">
				<use xlink:href="#SVGID_43_" style="overflow:visible;"/>
			</clipPath>
			<g style="clip-path:url(#SVGID_4_);">
				
					<image style="overflow:visible;" width="2058" height="1372" xlink:href="6AACFF44961E202D.jpg" transform="matrix(0.6756 0 0 0.6756 -580.8798 -799.158)">
				</image>
			</g>
		</g>
	</g>
	<path class="st72" d="M88.9,1.8c1.6,0,2.8,1.5,2.8,3.4v24.5c0,1.9-1.3,3.4-2.8,3.4H4.1c-1.6,0-2.8-1.5-2.8-3.4V5.2   c0-1.9,1.3-3.4,2.8-3.4H88.9"/>
	<path class="st3" d="M46.9,18.6c-1.6,0-2.9,1.2-2.9,2.9c0,1.7,1.3,2.9,2.9,2.9c1.6,0,2.9-1.2,2.9-2.9   C49.8,19.8,48.5,18.6,46.9,18.6 M46.9,23.2c-0.9,0-1.6-0.7-1.6-1.8c0-1,0.8-1.7,1.6-1.7c0.9,0,1.6,0.7,1.6,1.7   C48.5,22.5,47.8,23.2,46.9,23.2 M40.6,18.6c-1.6,0-2.9,1.2-2.9,2.9c0,1.7,1.3,2.9,2.9,2.9c1.6,0,2.9-1.2,2.9-2.9   C43.5,19.8,42.2,18.6,40.6,18.6 M40.6,23.2c-0.9,0-1.6-0.7-1.6-1.8c0-1,0.8-1.7,1.6-1.7c0.9,0,1.6,0.7,1.6,1.7   C42.2,22.5,41.4,23.2,40.6,23.2 M33.1,19.5v1.2H36c-0.1,0.7-0.3,1.2-0.7,1.5c-0.4,0.4-1.1,0.9-2.3,0.9c-1.8,0-3.2-1.5-3.2-3.3   c0-1.8,1.4-3.3,3.2-3.3c1,0,1.7,0.4,2.2,0.9l0.9-0.9c-0.7-0.7-1.7-1.2-3.1-1.2c-2.5,0-4.5,2-4.5,4.5c0,2.5,2.1,4.5,4.5,4.5   c1.3,0,2.3-0.4,3.1-1.3c0.8-0.8,1.1-1.9,1.1-2.9c0-0.3,0-0.5-0.1-0.8H33.1z M63.8,20.4c-0.2-0.6-1-1.8-2.5-1.8   c-1.5,0-2.7,1.2-2.7,2.9c0,1.6,1.2,2.9,2.9,2.9c1.3,0,2.1-0.8,2.4-1.3l-1-0.7c-0.3,0.5-0.8,0.8-1.4,0.8c-0.6,0-1.1-0.3-1.4-0.9   l3.9-1.6L63.8,20.4z M59.9,21.4c0-1.1,0.9-1.7,1.5-1.7c0.5,0,0.9,0.3,1.1,0.6L59.9,21.4z M56.7,24.2H58v-8.5h-1.3V24.2z M54.6,19.2   L54.6,19.2c-0.3-0.3-0.9-0.6-1.6-0.6c-1.4,0-2.8,1.3-2.8,2.9c0,1.6,1.3,2.9,2.8,2.9c0.7,0,1.2-0.3,1.5-0.7h0v0.4   c0,1.1-0.6,1.7-1.5,1.7c-0.8,0-1.3-0.6-1.5-1l-1.1,0.5c0.3,0.8,1.2,1.7,2.6,1.7c1.5,0,2.7-0.9,2.7-3v-5.2h-1.2V19.2z M53.2,23.2   c-0.9,0-1.6-0.7-1.6-1.7c0-1,0.7-1.8,1.6-1.8c0.9,0,1.5,0.7,1.5,1.8C54.7,22.5,54.1,23.2,53.2,23.2 M69.7,15.7h-3v8.5H68V21h1.8   c1.4,0,2.8-1,2.8-2.6C72.5,16.7,71.1,15.7,69.7,15.7 M69.8,19.8H68v-2.9h1.8c0.9,0,1.5,0.8,1.5,1.5C71.3,19,70.7,19.8,69.8,19.8    M77.6,18.6c-0.9,0-1.9,0.4-2.3,1.3l1.1,0.5c0.2-0.5,0.7-0.6,1.2-0.6c0.7,0,1.3,0.4,1.3,1.1v0.1c-0.2-0.1-0.7-0.3-1.3-0.3   c-1.2,0-2.4,0.7-2.4,1.9c0,1.1,1,1.9,2.1,1.9c0.9,0,1.3-0.4,1.6-0.8h0l0,0.7h1.2v-3.3C80.2,19.4,79,18.6,77.6,18.6 M77.4,23.2   c-0.4,0-1-0.2-1-0.7c0-0.7,0.7-0.9,1.3-0.9c0.6,0,0.8,0.1,1.2,0.3C78.8,22.7,78.2,23.2,77.4,23.2 M84.6,18.8l-1.5,3.7h0l-1.5-3.7   h-1.4l2.3,5.1l-1.3,2.9h1.3l3.5-8H84.6z M73.2,24.2h1.3v-8.5h-1.3V24.2z"/>
	<path class="st84" d="M9.4,9.3c-0.2,0.2-0.3,0.5-0.3,0.9v14.3c0,0.4,0.1,0.7,0.3,0.9l0,0l8-8v-0.1v-0.1L9.4,9.3L9.4,9.3z"/>
	<path class="st84" d="M9.4,9.3c-0.2,0.2-0.3,0.5-0.3,0.9v14.3c0,0.4,0.1,0.7,0.3,0.9l0,0l8-8v-0.1v-0.1L9.4,9.3L9.4,9.3z"/>
	<path class="st84" d="M20.2,20.2l-2.7-2.7v-0.1v-0.1l2.7-2.7l0.1,0l3.2,1.8c0.9,0.5,0.9,1.4,0,1.9L20.2,20.2L20.2,20.2z"/>
	<path class="st84" d="M20.2,20.2l-2.7-2.7v-0.1v-0.1l2.7-2.7l0.1,0l3.2,1.8c0.9,0.5,0.9,1.4,0,1.9L20.2,20.2L20.2,20.2z"/>
	<path class="st84" d="M20.3,20.2l-2.7-2.7l-8.1,8.1c0.3,0.3,0.8,0.4,1.3,0L20.3,20.2"/>
	<path class="st84" d="M20.3,20.2l-2.7-2.7l-8.1,8.1c0.3,0.3,0.8,0.4,1.3,0L20.3,20.2"/>
	<path class="st84" d="M20.3,14.7l-9.5-5.4c-0.6-0.3-1-0.3-1.3,0l8.1,8.1L20.3,14.7z"/>
	<path class="st84" d="M20.3,14.7l-9.5-5.4c-0.6-0.3-1-0.3-1.3,0l8.1,8.1L20.3,14.7z"/>
	<g>
		<path class="st3" d="M31.5,11.7c-0.2,0.1-0.6,0.2-1.1,0.2c-0.6,0-1-0.1-1.3-0.5c-0.3-0.3-0.5-0.7-0.5-1.2c0-1.1,0.8-1.8,1.9-1.8    c0.4,0,0.7,0.1,0.9,0.2l-0.1,0.5c-0.2-0.1-0.4-0.1-0.8-0.1c-0.7,0-1.2,0.4-1.2,1.2c0,0.8,0.5,1.2,1.2,1.2c0.2,0,0.4,0,0.5-0.1    v-0.8h-0.6V10h1.2V11.7z"/>
		<path class="st3" d="M34.2,10.3h-1.3v1h1.4v0.5h-2V8.4h2V9h-1.3v0.9h1.3V10.3z"/>
		<path class="st3" d="M35.7,9h-1V8.4h2.5V9h-1v2.9h-0.6V9z"/>
		<path class="st3" d="M39.6,8.4v3.4H39V8.4H39.6z"/>
		<path class="st3" d="M41,9h-1V8.4h2.5V9h-1v2.9H41V9z"/>
		<path class="st3" d="M47.3,10.1c0,1.1-0.7,1.8-1.6,1.8c-1,0-1.6-0.7-1.6-1.7c0-1,0.7-1.8,1.6-1.8C46.7,8.4,47.3,9.1,47.3,10.1z     M44.8,10.1c0,0.7,0.3,1.2,0.9,1.2c0.6,0,0.9-0.6,0.9-1.3c0-0.6-0.3-1.2-0.9-1.2C45.1,8.9,44.8,9.5,44.8,10.1z"/>
		<path class="st3" d="M48,11.8V8.4h0.7l0.9,1.4c0.2,0.4,0.4,0.8,0.6,1.1h0c0-0.5-0.1-0.9-0.1-1.4V8.4h0.6v3.4H50l-0.9-1.5    c-0.2-0.4-0.4-0.8-0.6-1.2l0,0c0,0.4,0,0.9,0,1.4v1.2H48z"/>
	</g>
</g>
<head xmlns=""/></svg>